<mxfile host="app.diagrams.net" modified="2024-04-03T01:24:29.750Z" agent="Mozilla/5.0 (Windows NT 10.0; Win64; x64) AppleWebKit/537.36 (KHTML, like Gecko) Chrome/121.0.0.0 Safari/537.36 OPR/107.0.0.0" version="24.2.1" etag="Yf9KKxpiOBcBekWKw9Wj" type="github">
  <diagram name="PÃ¡gina-1" id="LmzB--BYtK8uEfmT_q6G">
    <mxGraphModel>
      <root>
        <mxCell id="0" />
        <mxCell id="1" parent="0" />
      </root>
    </mxGraphModel>
  </diagram>
</mxfile>
